<mxfile host="app.diagrams.net" agent="Mozilla/5.0 (Windows NT 10.0; Win64; x64) AppleWebKit/537.36 (KHTML, like Gecko) Chrome/141.0.0.0 Safari/537.36" version="28.2.8">
  <diagram name="Page-1" id="Pym4T96IEMmdsNur6Ta0">
    <mxGraphModel dx="1326" dy="1831" grid="1" gridSize="10" guides="1" tooltips="1" connect="1" arrows="1" fold="1" page="1" pageScale="1" pageWidth="850" pageHeight="1100" math="0" shadow="0">
      <root>
        <mxCell id="0" />
        <mxCell id="1" parent="0" />
        <mxCell id="TnTFWZ-Hbo-qFbYyvlhM-1" value="Student@blueinternethost" style="rounded=0;whiteSpace=wrap;html=1;" vertex="1" parent="1">
          <mxGeometry x="10" y="70" width="150" height="90" as="geometry" />
        </mxCell>
        <mxCell id="TnTFWZ-Hbo-qFbYyvlhM-2" value="Red-int-host&lt;div&gt;10.50.189.76&lt;/div&gt;&lt;div&gt;net2_student8&lt;/div&gt;&lt;div&gt;password8&lt;/div&gt;&lt;div&gt;eth0:10.0.0.33/27&lt;/div&gt;" style="rounded=0;whiteSpace=wrap;html=1;" vertex="1" parent="1">
          <mxGeometry x="230" y="70" width="120" height="100" as="geometry" />
        </mxCell>
        <mxCell id="TnTFWZ-Hbo-qFbYyvlhM-3" value="" style="endArrow=none;html=1;rounded=0;entryX=0;entryY=0.5;entryDx=0;entryDy=0;" edge="1" parent="1" target="TnTFWZ-Hbo-qFbYyvlhM-2">
          <mxGeometry width="50" height="50" relative="1" as="geometry">
            <mxPoint x="230" y="100" as="sourcePoint" />
            <mxPoint x="450" y="350" as="targetPoint" />
            <Array as="points">
              <mxPoint x="160" y="110" />
            </Array>
          </mxGeometry>
        </mxCell>
        <mxCell id="TnTFWZ-Hbo-qFbYyvlhM-4" value="Ports: 80, 22,23,3389,21" style="text;html=1;whiteSpace=wrap;strokeColor=none;fillColor=none;align=center;verticalAlign=middle;rounded=0;" vertex="1" parent="1">
          <mxGeometry x="240" y="170" width="60" height="30" as="geometry" />
        </mxCell>
        <mxCell id="TnTFWZ-Hbo-qFbYyvlhM-9" value="" style="ellipse;whiteSpace=wrap;html=1;aspect=fixed;" vertex="1" parent="1">
          <mxGeometry x="360" y="200" width="60" height="60" as="geometry" />
        </mxCell>
        <mxCell id="TnTFWZ-Hbo-qFbYyvlhM-10" value="" style="endArrow=none;html=1;rounded=0;" edge="1" parent="1">
          <mxGeometry width="50" height="50" relative="1" as="geometry">
            <mxPoint x="90" y="420" as="sourcePoint" />
            <mxPoint x="140" y="370" as="targetPoint" />
          </mxGeometry>
        </mxCell>
        <mxCell id="TnTFWZ-Hbo-qFbYyvlhM-11" value="" style="endArrow=none;html=1;rounded=0;" edge="1" parent="1" target="TnTFWZ-Hbo-qFbYyvlhM-77">
          <mxGeometry width="50" height="50" relative="1" as="geometry">
            <mxPoint x="940" y="120" as="sourcePoint" />
            <mxPoint x="990" y="70" as="targetPoint" />
          </mxGeometry>
        </mxCell>
        <mxCell id="TnTFWZ-Hbo-qFbYyvlhM-13" value="Red Bound router&lt;div&gt;172.16.120.1&lt;/div&gt;&lt;div&gt;RED-SCR&lt;/div&gt;" style="text;html=1;whiteSpace=wrap;strokeColor=none;fillColor=none;align=center;verticalAlign=middle;rounded=0;" vertex="1" parent="1">
          <mxGeometry x="340" y="250" width="100" height="80" as="geometry" />
        </mxCell>
        <mxCell id="TnTFWZ-Hbo-qFbYyvlhM-15" value="" style="endArrow=none;html=1;rounded=0;entryX=0.875;entryY=1;entryDx=0;entryDy=0;entryPerimeter=0;" edge="1" parent="1" source="TnTFWZ-Hbo-qFbYyvlhM-9" target="TnTFWZ-Hbo-qFbYyvlhM-2">
          <mxGeometry width="50" height="50" relative="1" as="geometry">
            <mxPoint x="570" y="420" as="sourcePoint" />
            <mxPoint x="620" y="370" as="targetPoint" />
          </mxGeometry>
        </mxCell>
        <mxCell id="TnTFWZ-Hbo-qFbYyvlhM-17" value="INTERNET" style="rounded=0;whiteSpace=wrap;html=1;" vertex="1" parent="1">
          <mxGeometry x="480" y="120" width="120" height="60" as="geometry" />
        </mxCell>
        <mxCell id="TnTFWZ-Hbo-qFbYyvlhM-18" value="REDNET" style="rounded=0;whiteSpace=wrap;html=1;" vertex="1" parent="1">
          <mxGeometry x="500" y="228" width="120" height="60" as="geometry" />
        </mxCell>
        <mxCell id="TnTFWZ-Hbo-qFbYyvlhM-19" value="DMZ" style="rounded=0;whiteSpace=wrap;html=1;" vertex="1" parent="1">
          <mxGeometry x="480" y="330" width="120" height="60" as="geometry" />
        </mxCell>
        <mxCell id="TnTFWZ-Hbo-qFbYyvlhM-20" value="" style="endArrow=none;dashed=1;html=1;dashPattern=1 3;strokeWidth=2;rounded=0;" edge="1" parent="1" source="TnTFWZ-Hbo-qFbYyvlhM-9" target="TnTFWZ-Hbo-qFbYyvlhM-17">
          <mxGeometry width="50" height="50" relative="1" as="geometry">
            <mxPoint x="570" y="420" as="sourcePoint" />
            <mxPoint x="620" y="370" as="targetPoint" />
          </mxGeometry>
        </mxCell>
        <mxCell id="TnTFWZ-Hbo-qFbYyvlhM-21" value="" style="endArrow=none;dashed=1;html=1;dashPattern=1 3;strokeWidth=2;rounded=0;" edge="1" parent="1" source="TnTFWZ-Hbo-qFbYyvlhM-34" target="TnTFWZ-Hbo-qFbYyvlhM-18">
          <mxGeometry width="50" height="50" relative="1" as="geometry">
            <mxPoint x="426" y="226" as="sourcePoint" />
            <mxPoint x="494" y="190" as="targetPoint" />
          </mxGeometry>
        </mxCell>
        <mxCell id="TnTFWZ-Hbo-qFbYyvlhM-22" value="" style="endArrow=none;dashed=1;html=1;dashPattern=1 3;strokeWidth=2;rounded=0;" edge="1" parent="1" target="TnTFWZ-Hbo-qFbYyvlhM-9">
          <mxGeometry width="50" height="50" relative="1" as="geometry">
            <mxPoint x="490" y="340" as="sourcePoint" />
            <mxPoint x="620" y="370" as="targetPoint" />
          </mxGeometry>
        </mxCell>
        <mxCell id="TnTFWZ-Hbo-qFbYyvlhM-23" value="172.16.120.1/29" style="text;html=1;whiteSpace=wrap;strokeColor=none;fillColor=none;align=center;verticalAlign=middle;rounded=0;" vertex="1" parent="1">
          <mxGeometry x="510" y="150" width="60" height="30" as="geometry" />
        </mxCell>
        <mxCell id="TnTFWZ-Hbo-qFbYyvlhM-25" value="172.16.120.10/29" style="text;html=1;whiteSpace=wrap;strokeColor=none;fillColor=none;align=center;verticalAlign=middle;rounded=0;" vertex="1" parent="1">
          <mxGeometry x="530" y="260" width="60" height="30" as="geometry" />
        </mxCell>
        <mxCell id="TnTFWZ-Hbo-qFbYyvlhM-26" value="172.16.101.30/27" style="text;html=1;whiteSpace=wrap;strokeColor=none;fillColor=none;align=center;verticalAlign=middle;rounded=0;" vertex="1" parent="1">
          <mxGeometry x="510" y="360" width="60" height="30" as="geometry" />
        </mxCell>
        <mxCell id="TnTFWZ-Hbo-qFbYyvlhM-29" value="172.16.101.2&lt;div&gt;port:22&lt;/div&gt;&lt;div&gt;red-dmz-host-1&lt;/div&gt;" style="rounded=0;whiteSpace=wrap;html=1;" vertex="1" parent="1">
          <mxGeometry x="420" y="420" width="95" height="50" as="geometry" />
        </mxCell>
        <mxCell id="TnTFWZ-Hbo-qFbYyvlhM-30" value="" style="endArrow=none;dashed=1;html=1;dashPattern=1 3;strokeWidth=2;rounded=0;" edge="1" parent="1" source="TnTFWZ-Hbo-qFbYyvlhM-29" target="TnTFWZ-Hbo-qFbYyvlhM-19">
          <mxGeometry width="50" height="50" relative="1" as="geometry">
            <mxPoint x="400" y="400" as="sourcePoint" />
            <mxPoint x="450" y="350" as="targetPoint" />
          </mxGeometry>
        </mxCell>
        <mxCell id="TnTFWZ-Hbo-qFbYyvlhM-31" value="172.16.101.30&lt;div&gt;179/22show&amp;nbsp;&lt;/div&gt;" style="ellipse;whiteSpace=wrap;html=1;" vertex="1" parent="1">
          <mxGeometry x="660" y="400" width="100" height="50" as="geometry" />
        </mxCell>
        <mxCell id="TnTFWZ-Hbo-qFbYyvlhM-32" value="" style="endArrow=none;dashed=1;html=1;dashPattern=1 3;strokeWidth=2;rounded=0;entryX=1;entryY=1;entryDx=0;entryDy=0;exitX=0.5;exitY=0;exitDx=0;exitDy=0;" edge="1" parent="1" source="TnTFWZ-Hbo-qFbYyvlhM-31" target="TnTFWZ-Hbo-qFbYyvlhM-19">
          <mxGeometry width="50" height="50" relative="1" as="geometry">
            <mxPoint x="400" y="400" as="sourcePoint" />
            <mxPoint x="450" y="350" as="targetPoint" />
          </mxGeometry>
        </mxCell>
        <mxCell id="TnTFWZ-Hbo-qFbYyvlhM-33" value="eth2" style="text;html=1;whiteSpace=wrap;strokeColor=none;fillColor=none;align=center;verticalAlign=middle;rounded=0;" vertex="1" parent="1">
          <mxGeometry x="410" y="310" width="60" height="30" as="geometry" />
        </mxCell>
        <mxCell id="TnTFWZ-Hbo-qFbYyvlhM-35" value="" style="endArrow=none;dashed=1;html=1;dashPattern=1 3;strokeWidth=2;rounded=0;" edge="1" parent="1" source="TnTFWZ-Hbo-qFbYyvlhM-9" target="TnTFWZ-Hbo-qFbYyvlhM-34">
          <mxGeometry width="50" height="50" relative="1" as="geometry">
            <mxPoint x="420" y="235" as="sourcePoint" />
            <mxPoint x="500" y="249" as="targetPoint" />
          </mxGeometry>
        </mxCell>
        <mxCell id="TnTFWZ-Hbo-qFbYyvlhM-34" value="eth1&lt;div&gt;&lt;br&gt;&lt;/div&gt;" style="text;html=1;whiteSpace=wrap;strokeColor=none;fillColor=none;align=center;verticalAlign=middle;rounded=0;" vertex="1" parent="1">
          <mxGeometry x="440" y="250" width="60" as="geometry" />
        </mxCell>
        <mxCell id="TnTFWZ-Hbo-qFbYyvlhM-36" value="eth0" style="text;html=1;whiteSpace=wrap;strokeColor=none;fillColor=none;align=center;verticalAlign=middle;rounded=0;" vertex="1" parent="1">
          <mxGeometry x="410" y="170" width="60" height="30" as="geometry" />
        </mxCell>
        <mxCell id="TnTFWZ-Hbo-qFbYyvlhM-40" value="" style="endArrow=none;dashed=1;html=1;dashPattern=1 3;strokeWidth=2;rounded=0;" edge="1" parent="1" target="TnTFWZ-Hbo-qFbYyvlhM-18">
          <mxGeometry width="50" height="50" relative="1" as="geometry">
            <mxPoint x="670" y="190" as="sourcePoint" />
            <mxPoint x="450" y="350" as="targetPoint" />
          </mxGeometry>
        </mxCell>
        <mxCell id="TnTFWZ-Hbo-qFbYyvlhM-41" value="" style="endArrow=none;dashed=1;html=1;dashPattern=1 3;strokeWidth=2;rounded=0;" edge="1" parent="1" target="TnTFWZ-Hbo-qFbYyvlhM-18">
          <mxGeometry width="50" height="50" relative="1" as="geometry">
            <mxPoint x="700" y="277.8947368421052" as="sourcePoint" />
            <mxPoint x="630" y="248" as="targetPoint" />
          </mxGeometry>
        </mxCell>
        <mxCell id="TnTFWZ-Hbo-qFbYyvlhM-51" value="eth1" style="text;html=1;whiteSpace=wrap;strokeColor=none;fillColor=none;align=center;verticalAlign=middle;rounded=0;" vertex="1" parent="1">
          <mxGeometry x="630" y="210" width="60" height="30" as="geometry" />
        </mxCell>
        <mxCell id="TnTFWZ-Hbo-qFbYyvlhM-59" value="" style="endArrow=none;dashed=1;html=1;dashPattern=1 3;strokeWidth=2;rounded=0;" edge="1" parent="1">
          <mxGeometry width="50" height="50" relative="1" as="geometry">
            <mxPoint x="400" y="210" as="sourcePoint" />
            <mxPoint x="450" y="160" as="targetPoint" />
          </mxGeometry>
        </mxCell>
        <mxCell id="TnTFWZ-Hbo-qFbYyvlhM-63" value="Don bound" style="text;html=1;whiteSpace=wrap;strokeColor=none;fillColor=none;align=center;verticalAlign=middle;rounded=0;" vertex="1" parent="1">
          <mxGeometry x="520" y="220" width="60" height="30" as="geometry" />
        </mxCell>
        <mxCell id="TnTFWZ-Hbo-qFbYyvlhM-64" value="172.16.120.9&lt;div&gt;RED-IPS&lt;/div&gt;" style="rounded=0;whiteSpace=wrap;html=1;" vertex="1" parent="1">
          <mxGeometry x="680" y="160" width="100" height="50" as="geometry" />
        </mxCell>
        <mxCell id="TnTFWZ-Hbo-qFbYyvlhM-68" style="edgeStyle=orthogonalEdgeStyle;rounded=0;orthogonalLoop=1;jettySize=auto;html=1;exitX=0;exitY=1;exitDx=0;exitDy=0;" edge="1" parent="1" source="TnTFWZ-Hbo-qFbYyvlhM-66" target="TnTFWZ-Hbo-qFbYyvlhM-64">
          <mxGeometry relative="1" as="geometry" />
        </mxCell>
        <mxCell id="TnTFWZ-Hbo-qFbYyvlhM-73" style="edgeStyle=orthogonalEdgeStyle;rounded=0;orthogonalLoop=1;jettySize=auto;html=1;exitX=0.75;exitY=0;exitDx=0;exitDy=0;" edge="1" parent="1" source="TnTFWZ-Hbo-qFbYyvlhM-66">
          <mxGeometry relative="1" as="geometry">
            <mxPoint x="940" y="20" as="targetPoint" />
          </mxGeometry>
        </mxCell>
        <mxCell id="TnTFWZ-Hbo-qFbYyvlhM-66" value="RED-POP&lt;div&gt;172.16.120.17&lt;/div&gt;" style="rounded=0;whiteSpace=wrap;html=1;" vertex="1" parent="1">
          <mxGeometry x="840" y="90" width="100" height="40" as="geometry" />
        </mxCell>
        <mxCell id="TnTFWZ-Hbo-qFbYyvlhM-67" value="" style="endArrow=none;dashed=1;html=1;dashPattern=1 3;strokeWidth=2;rounded=0;" edge="1" parent="1">
          <mxGeometry width="50" height="50" relative="1" as="geometry">
            <mxPoint x="390" y="210" as="sourcePoint" />
            <mxPoint x="440" y="160" as="targetPoint" />
          </mxGeometry>
        </mxCell>
        <mxCell id="TnTFWZ-Hbo-qFbYyvlhM-69" value="eth1" style="text;html=1;whiteSpace=wrap;strokeColor=none;fillColor=none;align=center;verticalAlign=middle;rounded=0;" vertex="1" parent="1">
          <mxGeometry x="780" y="110" width="60" height="30" as="geometry" />
        </mxCell>
        <mxCell id="TnTFWZ-Hbo-qFbYyvlhM-70" value="" style="endArrow=none;dashed=1;html=1;dashPattern=1 3;strokeWidth=2;rounded=0;" edge="1" parent="1">
          <mxGeometry width="50" height="50" relative="1" as="geometry">
            <mxPoint x="390" y="210" as="sourcePoint" />
            <mxPoint x="440" y="160" as="targetPoint" />
          </mxGeometry>
        </mxCell>
        <mxCell id="TnTFWZ-Hbo-qFbYyvlhM-71" value="" style="endArrow=none;html=1;rounded=0;" edge="1" parent="1">
          <mxGeometry width="50" height="50" relative="1" as="geometry">
            <mxPoint x="390" y="210" as="sourcePoint" />
            <mxPoint x="440" y="160" as="targetPoint" />
          </mxGeometry>
        </mxCell>
        <mxCell id="TnTFWZ-Hbo-qFbYyvlhM-72" value="" style="endArrow=none;dashed=1;html=1;dashPattern=1 3;strokeWidth=2;rounded=0;" edge="1" parent="1">
          <mxGeometry width="50" height="50" relative="1" as="geometry">
            <mxPoint x="390" y="210" as="sourcePoint" />
            <mxPoint x="440" y="160" as="targetPoint" />
          </mxGeometry>
        </mxCell>
        <mxCell id="TnTFWZ-Hbo-qFbYyvlhM-74" value="eth0" style="text;html=1;whiteSpace=wrap;strokeColor=none;fillColor=none;align=center;verticalAlign=middle;rounded=0;" vertex="1" parent="1">
          <mxGeometry x="880" y="30" width="60" height="30" as="geometry" />
        </mxCell>
        <mxCell id="TnTFWZ-Hbo-qFbYyvlhM-75" value="172.16.120.17" style="rounded=1;whiteSpace=wrap;html=1;" vertex="1" parent="1">
          <mxGeometry x="870" y="-20" width="110" height="40" as="geometry" />
        </mxCell>
        <mxCell id="TnTFWZ-Hbo-qFbYyvlhM-76" value="Internet" style="text;html=1;whiteSpace=wrap;strokeColor=none;fillColor=none;align=center;verticalAlign=middle;rounded=0;" vertex="1" parent="1">
          <mxGeometry x="820" y="-40" width="60" height="30" as="geometry" />
        </mxCell>
        <mxCell id="TnTFWZ-Hbo-qFbYyvlhM-88" style="edgeStyle=orthogonalEdgeStyle;rounded=0;orthogonalLoop=1;jettySize=auto;html=1;exitX=1;exitY=0.5;exitDx=0;exitDy=0;" edge="1" parent="1" source="TnTFWZ-Hbo-qFbYyvlhM-77" target="TnTFWZ-Hbo-qFbYyvlhM-85">
          <mxGeometry relative="1" as="geometry" />
        </mxCell>
        <mxCell id="TnTFWZ-Hbo-qFbYyvlhM-77" value="172.16.182.126/27" style="rounded=1;whiteSpace=wrap;html=1;" vertex="1" parent="1">
          <mxGeometry x="990" y="40" width="110" height="50" as="geometry" />
        </mxCell>
        <mxCell id="TnTFWZ-Hbo-qFbYyvlhM-78" value="eth1" style="text;html=1;whiteSpace=wrap;strokeColor=none;fillColor=none;align=center;verticalAlign=middle;rounded=0;" vertex="1" parent="1">
          <mxGeometry x="950" y="95" width="60" height="30" as="geometry" />
        </mxCell>
        <mxCell id="TnTFWZ-Hbo-qFbYyvlhM-79" value="REDHOSTS" style="text;html=1;whiteSpace=wrap;strokeColor=none;fillColor=none;align=center;verticalAlign=middle;rounded=0;" vertex="1" parent="1">
          <mxGeometry x="1015" y="90" width="60" height="30" as="geometry" />
        </mxCell>
        <mxCell id="TnTFWZ-Hbo-qFbYyvlhM-80" value="172.16.140.6/29" style="rounded=1;whiteSpace=wrap;html=1;" vertex="1" parent="1">
          <mxGeometry x="980" y="160" width="110" height="40" as="geometry" />
        </mxCell>
        <mxCell id="TnTFWZ-Hbo-qFbYyvlhM-81" value="" style="endArrow=none;html=1;rounded=0;" edge="1" parent="1" source="TnTFWZ-Hbo-qFbYyvlhM-66">
          <mxGeometry width="50" height="50" relative="1" as="geometry">
            <mxPoint x="950" y="210" as="sourcePoint" />
            <mxPoint x="1000" y="160" as="targetPoint" />
          </mxGeometry>
        </mxCell>
        <mxCell id="TnTFWZ-Hbo-qFbYyvlhM-82" value="eth2" style="text;html=1;whiteSpace=wrap;strokeColor=none;fillColor=none;align=center;verticalAlign=middle;rounded=0;" vertex="1" parent="1">
          <mxGeometry x="910" y="140" width="60" height="30" as="geometry" />
        </mxCell>
        <mxCell id="TnTFWZ-Hbo-qFbYyvlhM-83" value="172.16.182.106" style="rounded=0;whiteSpace=wrap;html=1;" vertex="1" parent="1">
          <mxGeometry x="1155" y="-100" width="120" height="50" as="geometry" />
        </mxCell>
        <mxCell id="TnTFWZ-Hbo-qFbYyvlhM-84" value="172.16.182.110&lt;div&gt;22/80&lt;/div&gt;" style="rounded=0;whiteSpace=wrap;html=1;" vertex="1" parent="1">
          <mxGeometry x="1150" y="-30" width="120" height="50" as="geometry" />
        </mxCell>
        <mxCell id="TnTFWZ-Hbo-qFbYyvlhM-85" value="172.16.182.114" style="rounded=0;whiteSpace=wrap;html=1;" vertex="1" parent="1">
          <mxGeometry x="1150" y="40" width="120" height="50" as="geometry" />
        </mxCell>
        <mxCell id="TnTFWZ-Hbo-qFbYyvlhM-86" value="172.16.182.118" style="rounded=0;whiteSpace=wrap;html=1;" vertex="1" parent="1">
          <mxGeometry x="1150" y="110" width="120" height="50" as="geometry" />
        </mxCell>
        <mxCell id="TnTFWZ-Hbo-qFbYyvlhM-87" value="" style="endArrow=none;html=1;rounded=0;" edge="1" parent="1" source="TnTFWZ-Hbo-qFbYyvlhM-77">
          <mxGeometry width="50" height="50" relative="1" as="geometry">
            <mxPoint x="1120" y="170" as="sourcePoint" />
            <mxPoint x="1170" y="120" as="targetPoint" />
          </mxGeometry>
        </mxCell>
        <mxCell id="TnTFWZ-Hbo-qFbYyvlhM-90" value="" style="endArrow=none;html=1;rounded=0;" edge="1" parent="1" source="TnTFWZ-Hbo-qFbYyvlhM-77" target="TnTFWZ-Hbo-qFbYyvlhM-84">
          <mxGeometry width="50" height="50" relative="1" as="geometry">
            <mxPoint x="950" y="210" as="sourcePoint" />
            <mxPoint x="1000" y="160" as="targetPoint" />
          </mxGeometry>
        </mxCell>
        <mxCell id="TnTFWZ-Hbo-qFbYyvlhM-91" value="" style="endArrow=none;html=1;rounded=0;exitX=0;exitY=0.5;exitDx=0;exitDy=0;" edge="1" parent="1" source="TnTFWZ-Hbo-qFbYyvlhM-83" target="TnTFWZ-Hbo-qFbYyvlhM-77">
          <mxGeometry width="50" height="50" relative="1" as="geometry">
            <mxPoint x="950" y="210" as="sourcePoint" />
            <mxPoint x="1000" y="160" as="targetPoint" />
          </mxGeometry>
        </mxCell>
      </root>
    </mxGraphModel>
  </diagram>
</mxfile>
